<?xml version="1.0" encoding="UTF-8"?>
<svg id="Calque_2" xmlns="http://www.w3.org/2000/svg" viewBox="0 0 142 81.85">
    <defs>
        <style>.cls-1{fill:#0e0e0e;}</style>
    </defs>
    <g id="FLAG:Funny_iD4aSVG">
        <g>
            <path class="cls-1"
                  d="M142,36.21v9.4c0,20.01-16.22,36.24-36.22,36.24h-27.44c3.31-1.73,9.47-5.56,14.22-12.84,2.79-4.27,4.2-8.37,4.94-11.35h9.05c4.52,0,8.62-1.83,11.59-4.8,1.37-1.36,2.5-2.97,3.31-4.75,.96-2.08,1.49-4.39,1.49-6.83,0-9.07-7.34-16.4-16.39-16.4h-25.22c-3.93,0-7.53,1.38-10.36,3.69-.43,.35-.84,.72-1.23,1.11-1.2,1.19-2.21,2.57-2.99,4.09-1.16,2.25-1.81,4.8-1.81,7.51,0,2.44,.53,4.75,1.49,6.83h-2.48c-8.36,0-15.25-6.25-16.26-14.34-.09-.67-.13-1.36-.13-2.06,0-2.34,.25-4.63,.74-6.83,1.32-6,4.34-11.38,8.53-15.57C62.56,3.57,70.47,.01,79.22,.01h28.42c2.71,.14,5.35,.57,7.87,1.28,14.45,4.01,25.27,16.79,26.39,32.24,.07,.88,.1,1.77,.1,2.67Z"/>
            <path class="cls-1"
                  d="M64.32,.01c-2.88,1.38-8.3,4.46-12.93,10.51-4.34,5.67-5.94,11.3-6.59,14.39h-9.41c-4.52,0-8.62,1.83-11.59,4.8-1.2,1.19-2.21,2.57-2.99,4.09-1.16,2.25-1.81,4.8-1.81,7.5,0,9.05,7.34,16.38,16.39,16.38h25.22c3.93,0,7.53-1.38,10.36-3.69,.43-.35,.84-.72,1.23-1.11,1.37-1.36,2.5-2.97,3.31-4.75,.96-2.08,1.49-4.39,1.49-6.83,0-2.7-.65-5.25-1.81-7.5h2.87c8.36,0,15.25,6.25,16.26,14.33,.09,.67,.13,1.36,.13,2.05,0,2.58-.31,5.1-.9,7.5-.82,3.36-2.17,6.51-3.97,9.36-1.26,2.01-2.74,3.86-4.41,5.53-5.73,5.73-13.64,9.28-22.39,9.28h-26.56c-3.23,0-6.36-.42-9.34-1.21C12.25,76.74,1.25,63.9,.1,48.33c-.07-.89-.1-1.79-.1-2.7v-9.39C0,19.41,11.48,5.26,27.04,1.2h0c1.54-.41,3.12-.71,4.73-.91C33.88,.03,35.49,.02,36.22,.02c2.63,0,13.33-.03,28.1,0Z"/>
        </g>
    </g>
</svg>